<svg xmlns="http://www.w3.org/2000/svg" viewBox="0 0 15 19.95"><title>marker_2</title><path d="M7.49,19.23A61.87,61.87,0,0,1,1.15,10,7.72,7.72,0,0,1,.67,8.78,4.74,4.74,0,0,1,.51,7.31V7.18A7.32,7.32,0,0,1,7.5.5a7.32,7.32,0,0,1,7,6.68v.13a4.9,4.9,0,0,1-.16,1.49A8.51,8.51,0,0,1,13.85,10,60.61,60.61,0,0,1,7.49,19.23Z" style="fill:#e8403b"/><path d="M7.5,1h0A6.88,6.88,0,0,1,14,7.18v.15a4.15,4.15,0,0,1-.14,1.31,6.09,6.09,0,0,1-.45,1.1,59.21,59.21,0,0,1-5.9,8.69A59.21,59.21,0,0,1,1.6,9.74a6.92,6.92,0,0,1-.45-1.1A4.15,4.15,0,0,1,1,7.33V7.18A6.89,6.89,0,0,1,7.5,1m0-1h0A7.86,7.86,0,0,0,0,7.18,5.4,5.4,0,0,0,.19,8.92,7.16,7.16,0,0,0,.7,10.17a60.64,60.64,0,0,0,6.77,9.76h.06a60.64,60.64,0,0,0,6.77-9.76,7.16,7.16,0,0,0,.51-1.25A5.4,5.4,0,0,0,15,7.18,7.86,7.86,0,0,0,7.5,0Z"/></svg>