<svg xmlns="http://www.w3.org/2000/svg" viewBox="0 0 15 19.95"><title>marker_3</title><path d="M7.49,19.42A61.73,61.73,0,0,1,1,10,7.78,7.78,0,0,1,.55,8.82,4.83,4.83,0,0,1,.38,7.31V7.18A7.44,7.44,0,0,1,7.5.38a7.44,7.44,0,0,1,7.12,6.8v.13a4.9,4.9,0,0,1-.17,1.52A8.15,8.15,0,0,1,14,10,60.44,60.44,0,0,1,7.49,19.42Z" style="fill:#e8403b"/><path d="M7.5.75h0a6.67,6.67,0,0,1,4.8,2.19,6.54,6.54,0,0,1,1.94,4.24v.14a4.38,4.38,0,0,1-.15,1.38,6.85,6.85,0,0,1-.46,1.15,60.68,60.68,0,0,1-6.13,9,60.68,60.68,0,0,1-6.13-9A7.76,7.76,0,0,1,.91,8.71,4.48,4.48,0,0,1,.76,7.32V7.18A6.54,6.54,0,0,1,2.7,2.94,6.67,6.67,0,0,1,7.5.75M7.5,0h0A7.86,7.86,0,0,0,0,7.18,5.4,5.4,0,0,0,.19,8.92,7.16,7.16,0,0,0,.7,10.17a60.64,60.64,0,0,0,6.77,9.76h.06a60.64,60.64,0,0,0,6.77-9.76,7.16,7.16,0,0,0,.51-1.25A5.4,5.4,0,0,0,15,7.18,7.86,7.86,0,0,0,7.5,0Z" style="fill:#fff"/></svg>